<svg width="678" height="195" xmlns="http://www.w3.org/2000/svg" class="svg-logo">
 <style type="text/css">.st0{fill:none;}
	.st1{fill:#FFFFFF;}
	.st2{fill:#589BB9;}</style>

 <g>
  <title>background</title>
  <rect fill="none" id="canvas_background" height="197" width="680" y="-1" x="-1"/>
 </g>
 <g>
  <title>Layer 1</title>
  <rect stroke="null" x="4.000012" y="13.000001" id="svg_1" height="189.3" width="574.499988" class="st0"/>
  <g id="svg_2">
   <path id="svg_3" d="m126,83.7c10.4,0 15.7,5.4 18.6,12.4l-9.7,3.7c-1.2,-4.8 -4.3,-7.7 -9.4,-7.7c-7.5,0 -10.8,7.3 -10.8,15.2c0,7.8 3.1,15.1 10.9,15.1c5.3,0 7.7,-3.1 9.3,-7.2l9.9,3.8c-3.6,6.6 -8.9,11.9 -19,11.9c-13.5,0 -22.1,-9.4 -22.1,-23.6c-0.1,-14.1 8.5,-23.6 22.3,-23.6z" class="st1"/>
   <path id="svg_4" d="m189.7,129.7l-10.2,0l0,-6.7c-2.7,4.6 -7,7.9 -13.9,7.9c-8.5,0 -15.6,-5 -15.6,-15l0,-31l10.7,0l0,28.4c0,6.4 4,8.9 8.1,8.9c5.2,0 10.2,-4.6 10.2,-13.5l0,-23.7l10.7,0l0,44.7z" class="st1"/>
   <path id="svg_5" d="m301,119.9c-3.5,6.7 -9.7,11.1 -19.1,11.1c-13.7,0 -22.2,-9.5 -22.2,-23.7c0,-14.1 8.7,-23.5 21.8,-23.5c14.4,0 21.1,10.9 21.1,23.1l0,3l-32,0c0.3,6.7 3.2,13.1 11.2,13.1c5.5,0 8.1,-2.8 9.9,-6.7l9.3,3.6zm-30.2,-17.2l21,0c-0.3,-7.1 -4.4,-11.2 -10.4,-11.2c-6.3,0 -10,4.7 -10.6,11.2z" class="st1"/>
   <path id="svg_6" d="m309.1,84.9l10.3,0l0,6.8c2.6,-4.6 7.1,-8 14.1,-8c8.7,0 15.9,5 15.9,15.1l0,30.9l-10.8,0l0,-28.4c0,-6.4 -4.2,-8.9 -8.3,-8.9c-5.4,0 -10.4,4.6 -10.4,13.5l0,23.7l-10.8,0l0,-44.7z" class="st1"/>
   <path id="svg_7" d="m377.6,83.7c10.4,0 15.7,5.4 18.6,12.4l-9.7,3.7c-1.2,-4.8 -4.3,-7.7 -9.4,-7.7c-7.5,0 -10.8,7.3 -10.8,15.2c0,7.8 3.1,15.1 10.9,15.1c5.3,0 7.7,-3.1 9.3,-7.2l9.9,3.8c-3.6,6.6 -8.9,11.9 -19,11.9c-13.5,0 -22.1,-9.4 -22.1,-23.6c-0.1,-14.1 8.4,-23.6 22.3,-23.6z" class="st1"/>
   <path id="svg_8" d="m467.1,72.6c2.8,0 5.1,1.3 6.4,2.6l3.3,-8.9c-2.6,-1.6 -6.8,-2.5 -10.8,-2.5c-7.7,0 -16,4.2 -16,16.7l0,4.5l-18.3,0c0,0 -10,27.3 -11.6,32.7l-0.1,0c-1.8,-5.4 -11.8,-32.7 -11.8,-32.7l-11,0l17.6,44.9l-7.4,18.8l10.5,0l21.1,-55.8l11.1,0l0,36.9l10.7,0l0,-36.9l8.1,0l3,-7.9l-11.1,0l0,-4.6c0,-5.6 2.6,-7.8 6.3,-7.8z" class="st1"/>
   <path id="svg_9" d="m502.2,123.9c-2.9,4.2 -7.2,7 -14.3,7c-9,0 -15,-4.9 -15,-12.8c0,-12 13.8,-15.6 29.1,-15.6l0,-2.8c0,-4.7 -2.6,-8 -8.2,-8c-5.7,0 -8.4,3.2 -8.5,7l-10.4,-1.5c0.9,-8.8 9.4,-13.5 19.3,-13.5c10.8,0 18.3,5.5 18.3,16.3l0,23.6c0,2.7 0.5,4.4 1,6.1l-10.4,0c-0.4,-0.8 -0.9,-3.3 -0.9,-5.8zm-0.2,-10.7l0,-3.7c-11.1,0 -18.5,2.1 -18.5,8c0,3.6 3.1,5.5 7.4,5.5c5.6,0 11.1,-3.6 11.1,-9.8z" class="st1"/>
   <path id="svg_10" d="m520.7,84.9l10.8,0l0,44.8l-10.8,0l0,-44.8z" class="st1"/>
   <path id="svg_11" d="m565.2,93.8c-1.2,-0.6 -2.6,-0.9 -3.9,-0.9c-5.2,0 -10.9,4.5 -10.9,14.2l0,22.6l-10.8,0l0,-44.8l10.1,0l0,7.3c2.5,-5.7 7.1,-8.5 13.2,-8.5c1.8,0 3.9,0.3 5.7,1l-3.4,9.1z" class="st1"/>
   <path id="svg_12" d="m223.5,93.8c-1.2,-0.6 -2.6,-0.9 -3.9,-0.9c-5.2,0 -10.9,4.5 -10.9,14.2l0,22.6l-10.8,0l0,-44.8l10.1,0l0,7.3c2.5,-5.7 7.1,-8.5 13.2,-8.5c1.8,0 3.9,0.3 5.7,1l-3.4,9.1z" class="st1"/>
   <path id="svg_13" d="m256.6,93.8c-1.2,-0.6 -2.6,-0.9 -3.9,-0.9c-5.2,0 -10.9,4.5 -10.9,14.2l0,22.6l-10.8,0l0,-44.8l10.1,0l0,7.3c2.5,-5.7 7.1,-8.5 13.2,-8.5c1.8,0 3.9,0.3 5.7,1l-3.4,9.1z" class="st1"/>
   <ellipse id="svg_14" ry="6.9" rx="6.9" cy="47.132842" cx="596.400717" class="st1" transform="matrix(0.5,-0.866,0.866,0.5,187.059,561.8408) "/>
  </g>
  <g id="svg_15">
   <circle id="svg_16" r="32.899998" cy="154.6" cx="37.7" class="st2"/>
   <circle id="svg_17" r="24.699999" cy="31.5" cx="84.2" class="st2"/>
   <circle id="svg_18" r="16.5" cy="100.7" cx="58.1" class="st2"/>
   <circle id="svg_19" r="8.2" cy="69.9" cx="69.7" class="st2"/>
  </g>
 </g>
</svg>